<?xml version="1.0" encoding="us-ascii" standalone="no"?><svg xmlns="http://www.w3.org/2000/svg" xmlns:xlink="http://www.w3.org/1999/xlink" contentStyleType="text/css" height="338px" preserveAspectRatio="none" style="width:417px;height:338px;background:#D0D0D080;" version="1.1" viewBox="0 0 417 338" width="417px" zoomAndPan="magnify"><defs/><g><rect fill="#D0D0D0" fill-opacity="0.50196" height="338" style="stroke:none;stroke-width:1.0;" width="417" x="0" y="0"/><!--entity AudioFile--><g id="elem_AudioFile"><rect fill="#F1F1F1" height="36.2969" rx="2.5" ry="2.5" style="stroke:#181818;stroke-width:0.5;" width="98" x="7" y="7"/><text fill="#000000" font-family="sans-serif" font-size="14" lengthAdjust="spacing" textLength="78" x="17" y="29.9951">&#128266; Audio File</text></g><!--entity Conversion--><g id="elem_Conversion"><rect fill="#F1F1F1" height="36.2969" rx="2.5" ry="2.5" style="stroke:#181818;stroke-width:0.5;" width="92" x="140" y="7"/><text fill="#000000" font-family="sans-serif" font-size="14" lengthAdjust="spacing" textLength="72" x="150" y="29.9951">&#9676;&#8431; ffmpeg</text></g><!--entity VoiceIsolation--><g id="elem_VoiceIsolation"><rect fill="#F1F1F1" height="36.2969" rx="2.5" ry="2.5" style="stroke:#181818;stroke-width:0.5;" width="93" x="139.5" y="103.3"/><text fill="#000000" font-family="sans-serif" font-size="14" lengthAdjust="spacing" textLength="73" x="149.5" y="126.2951">&#128489; MDX-Net</text></g><!--entity Diarization--><g id="elem_Diarization"><rect fill="#F1F1F1" height="36.2969" rx="2.5" ry="2.5" style="stroke:#181818;stroke-width:0.5;" width="97" x="137.5" y="199.6"/><text fill="#000000" font-family="sans-serif" font-size="14" lengthAdjust="spacing" textLength="77" x="147.5" y="222.5951">&#128441; pyannote</text></g><!--entity SpeechToText--><g id="elem_SpeechToText"><rect fill="#F1F1F1" height="36.2969" rx="2.5" ry="2.5" style="stroke:#181818;stroke-width:0.5;" width="136" x="118" y="295.89"/><text fill="#000000" font-family="sans-serif" font-size="14" lengthAdjust="spacing" textLength="116" x="128" y="318.8851">&#9998; faster_whisper</text></g><!--entity WaveFile--><g id="elem_WaveFile"><rect fill="#F1F1F1" height="36.2969" rx="2.5" ry="2.5" style="stroke:#181818;stroke-width:0.5;" width="62" x="267" y="7"/><text fill="#000000" font-family="sans-serif" font-size="14" lengthAdjust="spacing" textLength="42" x="277" y="29.9951">&#128266; .wav</text></g><!--entity VoiceFile--><g id="elem_VoiceFile"><rect fill="#F1F1F1" height="36.2969" rx="2.5" ry="2.5" style="stroke:#181818;stroke-width:0.5;" width="70" x="268" y="103.3"/><text fill="#000000" font-family="sans-serif" font-size="14" lengthAdjust="spacing" textLength="50" x="278" y="126.2951">&#128266; Voice</text></g><!--entity RTTMFile--><g id="elem_RTTMFile"><rect fill="#F1F1F1" height="36.2969" rx="2.5" ry="2.5" style="stroke:#181818;stroke-width:0.5;" width="64" x="269" y="199.6"/><text fill="#000000" font-family="sans-serif" font-size="14" lengthAdjust="spacing" textLength="44" x="279" y="222.5951">&#128441; .rttm</text></g><!--entity TranscriptionFile--><g id="elem_TranscriptionFile"><rect fill="#F1F1F1" height="36.2969" rx="2.5" ry="2.5" style="stroke:#181818;stroke-width:0.5;" width="122" x="289" y="295.89"/><text fill="#000000" font-family="sans-serif" font-size="14" lengthAdjust="spacing" textLength="102" x="299" y="318.8851">&#128462; Transcription</text></g><!--link AudioFile to Conversion--><g id="link_AudioFile_Conversion"><path d="M105.26,25.15 C116.72,25.15 122.18,25.15 133.64,25.15 " fill="none" id="AudioFile-to-Conversion" style="stroke:#181818;stroke-width:2.0;"/><polygon fill="#181818" points="139.64,25.15,130.64,21.15,134.64,25.15,130.64,29.15,139.64,25.15" style="stroke:#181818;stroke-width:2.0;"/></g><!--link Conversion to WaveFile--><g id="link_Conversion_WaveFile"><path d="M232.37,25.15 C243.83,25.15 249.28,25.15 260.73,25.15 " fill="none" id="Conversion-to-WaveFile" style="stroke:#181818;stroke-width:1.0;stroke-dasharray:7.0,7.0;"/><polygon fill="#181818" points="266.73,25.15,257.73,21.15,261.73,25.15,257.73,29.15,266.73,25.15" style="stroke:#181818;stroke-width:1.0;"/></g><!--link Conversion to VoiceIsolation--><g id="link_Conversion_VoiceIsolation"><path d="M186,43.45 C186,60.35 186,79.96 186,96.94 " fill="none" id="Conversion-to-VoiceIsolation" style="stroke:#181818;stroke-width:2.0;"/><polygon fill="#181818" points="186,102.94,190,93.94,186,97.94,182,93.94,186,102.94" style="stroke:#181818;stroke-width:2.0;"/></g><!--link VoiceIsolation to Diarization--><g id="link_VoiceIsolation_Diarization"><path d="M186,139.74 C186,156.65 186,176.26 186,193.24 " fill="none" id="VoiceIsolation-to-Diarization" style="stroke:#181818;stroke-width:2.0;"/><polygon fill="#181818" points="186,199.24,190,190.24,186,194.24,182,190.24,186,199.24" style="stroke:#181818;stroke-width:2.0;"/></g><!--link VoiceIsolation to VoiceFile--><g id="link_VoiceIsolation_VoiceFile"><path d="M232.62,121.45 C244.26,121.45 249.89,121.45 261.53,121.45 " fill="none" id="VoiceIsolation-to-VoiceFile" style="stroke:#181818;stroke-width:1.0;stroke-dasharray:7.0,7.0;"/><polygon fill="#181818" points="267.53,121.45,258.53,117.45,262.53,121.45,258.53,125.45,267.53,121.45" style="stroke:#181818;stroke-width:1.0;"/></g><!--link Diarization to RTTMFile--><g id="link_Diarization_RTTMFile"><path d="M234.96,217.74 C246.23,217.74 251.49,217.74 262.76,217.74 " fill="none" id="Diarization-to-RTTMFile" style="stroke:#181818;stroke-width:1.0;stroke-dasharray:7.0,7.0;"/><polygon fill="#181818" points="268.76,217.74,259.76,213.74,263.76,217.74,259.76,221.74,268.76,217.74" style="stroke:#181818;stroke-width:1.0;"/></g><!--link Diarization to SpeechToText--><g id="link_Diarization_SpeechToText"><path d="M186,236.04 C186,252.95 186,272.56 186,289.54 " fill="none" id="Diarization-to-SpeechToText" style="stroke:#181818;stroke-width:2.0;"/><polygon fill="#181818" points="186,295.54,190,286.54,186,290.54,182,286.54,186,295.54" style="stroke:#181818;stroke-width:2.0;"/></g><!--link SpeechToText to TranscriptionFile--><g id="link_SpeechToText_TranscriptionFile"><path d="M254.23,314.04 C265.7,314.04 271.17,314.04 282.65,314.04 " fill="none" id="SpeechToText-to-TranscriptionFile" style="stroke:#181818;stroke-width:1.0;stroke-dasharray:7.0,7.0;"/><polygon fill="#181818" points="288.65,314.04,279.65,310.04,283.65,314.04,279.65,318.04,288.65,314.04" style="stroke:#181818;stroke-width:1.0;"/></g><!--SRC=[PP2nJiCm48RtFCMfp4GTMLe99Qh4q0uG0HkwfjVsrCIEpcuBh6m8TK9qGM9cOkPryWGy0erRDKuZBpx_tvtl_ys2LO62EQGP6ZFGoeum9uWmux5mO8xw6DF5JFHIJIATQO6pk5kTYsuG2AKMrImZwFnzlR_2vNB26WQSKGVGxCkgyi5o-rQ-_C1qcXSqSrYarOh4i5RDWTjl6CRtvoEo3hlLdDALqHdQ5lhn2yKJAgNj_kUOKVYv1PQV6vYYiIGFwpcRWiJHDmLHEazqGe-svIbSuyfHTxYYKpEES8lLAxQPtNQXM9ixvZf9Xcraku54K9bKkAYsTcZZnVK4nqYX9zph-zdLrzrl7FRhXJsbj-iv2R9PEiAFxqJUZwwDUkX1EnhqfMfg8sQ_E3IsxVu3]--></g></svg>